<?xml version="1.0" encoding="UTF-8" standalone="no"?>
<!DOCTYPE svg PUBLIC "-//W3C//DTD SVG 1.1//EN" "http://www.w3.org/Graphics/SVG/1.1/DTD/svg11.dtd">
<svg width="100%" height="100%" viewBox="0 0 90 90" version="1.1" xmlns="http://www.w3.org/2000/svg" xmlns:xlink="http://www.w3.org/1999/xlink" xml:space="preserve" xmlns:serif="http://www.serif.com/" style="fill-rule:evenodd;clip-rule:evenodd;stroke-linejoin:round;stroke-miterlimit:2;">
    <g transform="matrix(1,0,0,1,-527.101,-1545.06)">
        <g transform="matrix(1,0,0,1,-16973.4,116.832)">
            <g transform="matrix(1,0,0,1,17495.5,1423.23)">
                <path d="M24.8,14.9C24.8,20.368 20.368,24.8 14.9,24.8C9.432,24.8 5,20.368 5,14.9C5,9.432 9.432,5 14.9,5C20.368,5 24.8,9.432 24.8,14.9ZM59.9,14.9C59.9,20.368 55.468,24.8 50,24.8C44.532,24.8 40.1,20.368 40.1,14.9C40.1,9.432 44.532,5 50,5C55.468,5 59.9,9.432 59.9,14.9ZM85.1,24.8C90.568,24.8 95,20.368 95,14.9C95,9.432 90.568,5 85.1,5C79.632,5 75.2,9.432 75.2,14.9C75.2,20.368 79.632,24.8 85.1,24.8ZM95,85.1C95,90.568 90.568,95 85.1,95C79.632,95 75.2,90.568 75.2,85.1C75.2,79.632 79.632,75.2 85.1,75.2C90.568,75.2 95,79.632 95,85.1ZM14.9,95C20.368,95 24.8,90.568 24.8,85.1C24.8,79.632 20.368,75.2 14.9,75.2C9.432,75.2 5,79.632 5,85.1C5,90.568 9.432,95 14.9,95ZM59.9,85.1C59.9,90.568 55.468,95 50,95C44.532,95 40.1,90.568 40.1,85.1C40.1,79.632 44.532,75.2 50,75.2C55.468,75.2 59.9,79.632 59.9,85.1ZM14.9,59.9C20.368,59.9 24.8,55.468 24.8,50C24.8,44.532 20.368,40.1 14.9,40.1C9.432,40.1 5,44.532 5,50C5,55.468 9.432,59.9 14.9,59.9ZM59.9,50C59.9,55.468 55.468,59.9 50,59.9C44.532,59.9 40.1,55.468 40.1,50C40.1,44.532 44.532,40.1 50,40.1C55.468,40.1 59.9,44.532 59.9,50ZM85.1,59.9C90.568,59.9 95,55.468 95,50C95,44.532 90.568,40.1 85.1,40.1C79.632,40.1 75.2,44.532 75.2,50C75.2,55.468 79.632,59.9 85.1,59.9Z" style="fill:rgb(252,248,237);"/>
            </g>
        </g>
    </g>
</svg>
