<?xml version="1.0" encoding="UTF-8" standalone="no"?>
<!DOCTYPE svg PUBLIC "-//W3C//DTD SVG 1.1//EN" "http://www.w3.org/Graphics/SVG/1.1/DTD/svg11.dtd">
<svg width="100%" height="100%" viewBox="0 0 293 65" version="1.1" xmlns="http://www.w3.org/2000/svg" xmlns:xlink="http://www.w3.org/1999/xlink" xml:space="preserve" xmlns:serif="http://www.serif.com/" style="fill-rule:evenodd;clip-rule:evenodd;stroke-linejoin:round;stroke-miterlimit:2;">
    <g transform="matrix(1,0,0,1,-436.728,-498.164)">
        <g transform="matrix(1,0,0,1,-17057.8,-1118.58)">
            <g transform="matrix(0.764336,0,0,0.764335,7326.43,-1419.2)">
                <g id="Logo-Here" serif:id="Logo Here" transform="matrix(1.97976,0,0,1.97976,13302.4,4040.15)">
                    <g>
                        <path d="M14.922,-27L14.922,0L8.853,0L8.853,-24.977L11.887,-22.23L0.411,-20.217L0.411,-24.991L10.397,-27L14.922,-27Z" style="fill:rgb(239,240,238);fill-rule:nonzero;"/>
                        <path d="M18.835,-18.479C18.982,-20.164 19.587,-21.69 20.653,-23.058C21.719,-24.426 23.233,-25.516 25.196,-26.329C27.16,-27.141 29.525,-27.547 32.292,-27.547C34.706,-27.547 36.806,-27.236 38.59,-26.613C40.374,-25.99 41.756,-25.124 42.736,-24.014C43.715,-22.904 44.205,-21.598 44.205,-20.095C44.205,-18.862 43.839,-17.745 43.107,-16.745C42.375,-15.746 41.243,-14.956 39.712,-14.377C38.18,-13.797 36.23,-13.511 33.861,-13.518L33.861,-14.235C36.141,-14.338 38.097,-14.156 39.728,-13.689C41.359,-13.222 42.613,-12.496 43.49,-11.511C44.367,-10.526 44.805,-9.295 44.805,-7.819C44.805,-6.197 44.295,-4.756 43.275,-3.497C42.255,-2.239 40.778,-1.25 38.842,-0.531C36.906,0.188 34.544,0.547 31.755,0.547C29.046,0.547 26.683,0.164 24.667,-0.603C22.651,-1.37 21.079,-2.452 19.951,-3.848C18.823,-5.245 18.206,-6.881 18.101,-8.755L24.217,-8.755C24.412,-7.313 25.132,-6.204 26.379,-5.43C27.626,-4.656 29.418,-4.269 31.755,-4.269C33.999,-4.269 35.701,-4.623 36.86,-5.33C38.02,-6.037 38.599,-7.014 38.599,-8.262C38.599,-8.996 38.406,-9.612 38.02,-10.11C37.633,-10.608 36.98,-10.986 36.061,-11.244C35.142,-11.502 33.887,-11.631 32.295,-11.631L27.529,-11.631L27.529,-15.905L32.295,-15.905C34.362,-15.905 35.836,-16.215 36.718,-16.835C37.6,-17.456 38.041,-18.263 38.041,-19.257C38.041,-20.356 37.541,-21.21 36.54,-21.818C35.539,-22.426 34.014,-22.731 31.965,-22.731C29.884,-22.731 28.252,-22.362 27.068,-21.625C25.885,-20.888 25.179,-19.84 24.951,-18.479L18.835,-18.479Z" style="fill:rgb(239,240,238);fill-rule:nonzero;"/>
                        <path d="M66.006,-13.305L66.549,-14.533C68.657,-14.495 70.39,-14.171 71.75,-13.561C73.11,-12.951 74.115,-12.124 74.765,-11.079C75.415,-10.034 75.741,-8.837 75.741,-7.488C75.741,-6.041 75.402,-4.755 74.725,-3.629C74.048,-2.503 73.046,-1.617 71.719,-0.97C70.392,-0.323 68.737,0 66.755,0L47.793,0L49.896,-13.86L47.793,-27L66.075,-27C68.571,-27 70.506,-26.418 71.88,-25.254C73.254,-24.09 73.941,-22.484 73.941,-20.437C73.941,-19.328 73.681,-18.262 73.161,-17.239C72.641,-16.215 71.804,-15.349 70.65,-14.641C69.496,-13.933 67.948,-13.488 66.006,-13.305ZM53.867,-1.537L51.523,-4.518L65.491,-4.518C66.77,-4.518 67.768,-4.82 68.485,-5.425C69.201,-6.03 69.559,-6.886 69.559,-7.992C69.559,-9.127 69.153,-10.023 68.339,-10.681C67.525,-11.339 66.325,-11.667 64.739,-11.667L53.352,-11.667L53.352,-16.053L64.001,-16.053C65.078,-16.053 65.974,-16.358 66.688,-16.969C67.402,-17.579 67.759,-18.437 67.759,-19.541C67.759,-20.395 67.458,-21.099 66.856,-21.652C66.253,-22.205 65.386,-22.482 64.253,-22.482L51.534,-22.482L53.867,-25.463L55.753,-13.86L53.867,-1.537Z" style="fill:rgb(239,240,238);fill-rule:nonzero;"/>
                        <rect x="78.649" y="-27.72" width="6.019" height="27.72" style="fill:rgb(239,240,238);fill-rule:nonzero;"/>
                        <path d="M107.079,0L106.211,-7.485L107.179,-10.231L106.211,-12.942L107.079,-20.473L113.307,-20.473L112.119,-10.242L113.307,0L107.079,0ZM108.659,-10.231C108.268,-8.074 107.56,-6.185 106.537,-4.567C105.513,-2.948 104.231,-1.691 102.69,-0.796C101.149,0.1 99.42,0.547 97.503,0.547C95.503,0.547 93.737,0.096 92.205,-0.808C90.673,-1.712 89.476,-2.975 88.616,-4.597C87.756,-6.219 87.325,-8.098 87.325,-10.231C87.325,-12.389 87.756,-14.274 88.616,-15.888C89.476,-17.502 90.673,-18.761 92.205,-19.665C93.737,-20.569 95.503,-21.021 97.503,-21.021C99.42,-21.021 101.149,-20.575 102.69,-19.683C104.231,-18.791 105.519,-17.54 106.555,-15.93C107.59,-14.32 108.292,-12.42 108.659,-10.231ZM93.417,-10.231C93.417,-9.036 93.663,-7.981 94.155,-7.067C94.647,-6.153 95.325,-5.436 96.19,-4.916C97.055,-4.396 98.048,-4.137 99.169,-4.137C100.314,-4.137 101.385,-4.396 102.381,-4.916C103.377,-5.436 104.257,-6.153 105.023,-7.067C105.789,-7.981 106.38,-9.036 106.797,-10.231C106.38,-11.426 105.789,-12.483 105.023,-13.401C104.257,-14.319 103.377,-15.038 102.381,-15.557C101.385,-16.077 100.314,-16.337 99.169,-16.337C98.048,-16.337 97.055,-16.077 96.19,-15.557C95.325,-15.038 94.647,-14.319 94.155,-13.401C93.663,-12.483 93.417,-11.426 93.417,-10.231Z" style="fill:rgb(239,240,238);fill-rule:nonzero;"/>
                        <path d="M140.133,-8.352C139.915,-6.593 139.248,-5.044 138.132,-3.706C137.016,-2.368 135.58,-1.325 133.825,-0.576C132.069,0.173 130.105,0.547 127.933,0.547C125.495,0.547 123.347,0.094 121.491,-0.814C119.635,-1.721 118.185,-2.986 117.141,-4.608C116.097,-6.23 115.575,-8.105 115.575,-10.231C115.575,-12.365 116.097,-14.241 117.141,-15.86C118.185,-17.479 119.635,-18.743 121.491,-19.654C123.347,-20.565 125.495,-21.021 127.933,-21.021C130.105,-21.021 132.069,-20.646 133.825,-19.897C135.58,-19.148 137.016,-18.107 138.132,-16.772C139.248,-15.438 139.915,-13.879 140.133,-12.096L134.121,-12.096C133.821,-13.481 133.113,-14.553 131.996,-15.313C130.879,-16.072 129.524,-16.452 127.933,-16.452C126.673,-16.452 125.57,-16.206 124.623,-15.714C123.676,-15.222 122.946,-14.513 122.434,-13.588C121.922,-12.663 121.665,-11.544 121.665,-10.231C121.665,-8.935 121.922,-7.822 122.434,-6.892C122.946,-5.962 123.676,-5.251 124.623,-4.759C125.57,-4.267 126.673,-4.021 127.933,-4.021C129.541,-4.021 130.904,-4.417 132.021,-5.207C133.138,-5.998 133.838,-7.046 134.121,-8.352L140.133,-8.352Z" style="fill:rgb(239,240,238);fill-rule:nonzero;"/>
                        <path d="M148.713,-4.975L147.021,-5.565L159.192,-20.473L165.759,-20.473L148.161,0L142.693,0L142.693,-27.72L148.713,-27.72L148.713,-4.975ZM153.363,-10.059L157.773,-13.475L166.338,0L159.437,0L153.363,-10.059Z" style="fill:rgb(239,240,238);fill-rule:nonzero;"/>
                    </g>
                </g>
                <g transform="matrix(0.995444,0,0,0.995444,11121,-2131.07)">
                    <g transform="matrix(1,0,0,1,2498.29,6123.51)">
                        <path d="M78.246,7.5L25.283,7.5L66.418,13.739L66.418,85.67L21.754,92.486L21.754,92.5L78.246,92.5L78.246,7.5Z" style="fill:rgb(239,240,238);fill-rule:nonzero;"/>
                    </g>
                    <g transform="matrix(1,0,0,1,2498.29,6123.51)">
                        <path d="M60.286,47.107C59.227,47.107 58.368,47.966 58.368,49.025C58.368,50.084 59.227,50.943 60.286,50.943C61.345,50.943 62.204,50.084 62.204,49.025C62.204,47.965 61.346,47.107 60.286,47.107Z" style="fill:rgb(239,240,238);fill-rule:nonzero;"/>
                    </g>
                </g>
            </g>
        </g>
    </g>
</svg>
