<?xml version="1.0" encoding="UTF-8" standalone="no"?>
<!DOCTYPE svg PUBLIC "-//W3C//DTD SVG 1.1//EN" "http://www.w3.org/Graphics/SVG/1.1/DTD/svg11.dtd">
<svg width="100%" height="100%" viewBox="0 0 375 395" version="1.1" xmlns="http://www.w3.org/2000/svg" xmlns:xlink="http://www.w3.org/1999/xlink" xml:space="preserve" xmlns:serif="http://www.serif.com/" style="fill-rule:evenodd;clip-rule:evenodd;stroke-linejoin:round;stroke-miterlimit:2;">
    <g transform="matrix(1,0,0,1,-243.544,-2306.33)">
        <g transform="matrix(1,0,0,1,820.482,-0.515644)">
            <g transform="matrix(4.64123,0,0,4.64123,-621.973,2272.25)">
                <path d="M71.688,39.487C69.256,39.487 66.594,39.957 63.95,40.81C66.784,36.206 68.501,30.714 68.501,26.063C68.501,15.845 60.218,7.562 50,7.562C39.782,7.562 31.499,15.845 31.499,26.063C31.499,30.715 33.216,36.207 36.05,40.81C33.406,39.957 30.744,39.487 28.312,39.487C18.094,39.487 9.811,47.77 9.811,57.988C9.811,68.206 18.094,76.49 28.312,76.49C33.899,76.49 40.699,74.014 45.715,70.099C40.96,80.769 34.249,88.064 29.426,92.44L70.574,92.44C65.751,88.064 59.039,80.768 54.283,70.097C59.299,74.013 66.101,76.49 71.689,76.49C81.907,76.49 90.19,68.207 90.19,57.989C90.19,47.771 81.906,39.487 71.688,39.487Z" style="fill:none;fill-rule:nonzero;stroke:black;stroke-width:0.22px;"/>
            </g>
        </g>
    </g>
</svg>
