<?xml version="1.0" encoding="UTF-8" standalone="no"?>
<!DOCTYPE svg PUBLIC "-//W3C//DTD SVG 1.1//EN" "http://www.w3.org/Graphics/SVG/1.1/DTD/svg11.dtd">
<svg width="100%" height="100%" viewBox="0 0 575 591" version="1.1" xmlns="http://www.w3.org/2000/svg" xmlns:xlink="http://www.w3.org/1999/xlink" xml:space="preserve" xmlns:serif="http://www.serif.com/" style="fill-rule:evenodd;clip-rule:evenodd;stroke-linejoin:round;stroke-miterlimit:2;">
    <g transform="matrix(1,0,0,1,-1167.77,-1870.41)">
        <g transform="matrix(1,0,0,1,820.482,-0.515644)">
            <g transform="matrix(6.93568,0,0,6.93568,287.691,1819.54)">
                <path d="M90.356,49.624C90.356,49.623 90.355,49.621 90.355,49.62C84.618,27.393 56.816,9.675 50,7.533L50,7.48C43.184,9.622 15.382,27.34 9.645,49.567C9.645,49.568 9.644,49.57 9.644,49.571C9.009,51.558 8.665,53.674 8.665,55.872C8.665,67.286 17.918,76.54 29.333,76.54C37.136,76.54 43.928,72.215 47.446,65.832C47.041,66.95 46.593,68.09 46.097,69.248C41.315,80.424 34.352,88.015 29.387,92.52L70.613,92.52C65.648,88.015 58.685,80.424 53.902,69.249C53.428,68.142 52.998,67.051 52.607,65.98C56.139,72.311 62.902,76.594 70.667,76.594C82.081,76.594 91.335,67.341 91.335,55.926C91.335,53.728 90.991,51.611 90.356,49.624Z" style="fill:none;fill-rule:nonzero;stroke:black;stroke-width:0.14px;"/>
            </g>
        </g>
    </g>
</svg>
